<?xml version="1.0" encoding="utf-8"?>
<!-- Generator: Adobe Illustrator 23.0.1, SVG Export Plug-In . SVG Version: 6.00 Build 0)  -->
<svg version="1.1" id="Camada_1" xmlns="http://www.w3.org/2000/svg" xmlns:xlink="http://www.w3.org/1999/xlink" x="0px" y="0px"
	 viewBox="0 0 240 80" style="enable-background:new 0 0 240 80;" xml:space="preserve">
<style type="text/css">
	.st0{fill-rule:evenodd;clip-rule:evenodd;fill:#FFFFFF;stroke:#ECEDEF;stroke-width:0.5669;stroke-miterlimit:22.9256;}
	.st1{fill-rule:evenodd;clip-rule:evenodd;fill:#F1CF00;stroke:#F1CF00;stroke-width:0.5669;stroke-miterlimit:22.9256;}
	.st2{fill-rule:evenodd;clip-rule:evenodd;fill:#A11217;}
	.st3{fill-rule:evenodd;clip-rule:evenodd;fill:#2768AB;}
</style>
<g>
	<polygon class="st0" points="-42.85,-75.42 282.24,-75.42 282.24,154.44 -42.85,154.44 	"/>
	<path class="st1" d="M36.42,54.25h8.16v2.41h-7.14c-0.46,0-0.84,0.34-0.84,0.8v10.37c0,0.46,0.38,0.84,0.84,0.84h9.93
		c0.46,0,0.84-0.38,0.84-0.84v-5.17h2.39v6.17c0,1.2-0.99,2.19-2.19,2.19H36.43c-1.2,0-2.19-0.98-2.19-2.19v-12.4
		C34.23,55.24,35.22,54.25,36.42,54.25L36.42,54.25z"/>
	<path class="st2" d="M61.61,32.18h6.67c2.73,0,4.97,2.24,4.97,4.97v18.5c0,2.73-2.24,4.97-4.97,4.97H51.52
		c-2.73,0-4.97-2.23-4.97-4.97v-6.46h3.44v6.07c0,1.04,0.86,1.9,1.9,1.9H67.9c1.04,0,1.9-0.86,1.9-1.9V37.54
		c0-1.04-0.85-1.9-1.9-1.9h-6.29L61.61,32.18L61.61,32.18z"/>
	<path class="st3" d="M69.16,26.59V8.86c5.17,0,10.34-0.1,15.52,0c3.04,0.06,5.14,1.34,5.26,4.35c0.07,1.92,0.19,3.84,0,5.75
		c-0.16,1.7-1.68,2.79-4.1,2.79H73.11v4.8L69.16,26.59L69.16,26.59z M73.06,12.31v6.28c3.67,0,7.33,0.02,11,0
		c1.18-0.01,1.87-0.53,1.93-1.44c0.08-1.07,0.06-2.14,0-3.2c-0.05-0.88-0.65-1.59-1.76-1.6L73.06,12.31L73.06,12.31z"/>
	<path class="st3" d="M175.89,35.92c0,5.62,0,10.62,0,16.24c0.17,3.49-2.29,5.68-4.96,6.01c-4.05,0.03-8.11,0.06-12.16-0.02
		c-3.35-0.07-5.67-1.47-5.8-4.8c-0.08-2.11-0.06-4.97,0-7.08c0.06-1.96,2.22-5.16,4.9-5.19l12.98-0.12v-4.99L175.89,35.92
		L175.89,35.92z M170.78,52.12v-6.94c-3.87,0.25-6.35,0.07-10.46,0c-1.3-0.02-2.31,0.58-2.37,1.58c-0.08,1.17-0.07,4.34,0,5.51
		c0.05,0.97,0.97,1.76,2.19,1.76c3.55,0.01,5.78,0.03,9.04,0.04C170.32,53.82,170.72,52.98,170.78,52.12L170.78,52.12z"/>
	<path class="st3" d="M96.58,27.02c-1.3,0-2.6,0-3.9,0c0-3.28-0.19-6.57,0-9.85c0.15-2.6,1.79-4.28,4.76-4.48
		c1.48-0.1,2.95,0,4.43,0c0,1.05,0,2.11,0,3.16c-1.29,0-2.58-0.1-3.86,0c-0.74,0.06-1.39,0.56-1.44,1.36
		C96.39,20.48,96.58,23.75,96.58,27.02L96.58,27.02z"/>
	<path class="st3" d="M209.43,58.56c-1.56,0-3.12,0-4.68,0c0-3.94-0.23-7.88,0-11.82c0.18-3.12,2.15-5.14,5.71-5.37
		c1.77-0.11,3.54,0,5.32,0c0,1.26,0,2.53,0,3.79c-1.54,0-3.09-0.12-4.63,0c-0.88,0.07-1.67,0.68-1.72,1.63
		C209.21,50.71,209.43,54.64,209.43,58.56L209.43,58.56z"/>
	<path class="st3" d="M108.5,12.7c2.61-0.12,5.23-0.08,7.84,0c3.12,0.09,5.06,1.43,5.21,4.02c0.12,2.08,0.12,4.16,0,6.24
		c-0.13,2.26-1.63,3.83-4.64,3.98c-2.83,0.14-5.66,0.08-8.5,0c-3.26-0.1-5.12-1.54-5.17-4.35c-0.03-1.82-0.12-3.64,0-5.46
		C103.42,14.45,105.26,12.84,108.5,12.7L108.5,12.7z M110.16,16.09c1.51-0.07,3.01-0.05,4.52,0c1.8,0.05,2.92,0.45,3,1.95
		c0.07,1.2,0.07,2.4,0,3.59c-0.08,1.31-0.94,1.96-2.67,2.05c-1.63,0.08-3.27,0.05-4.9,0c-1.88-0.05-2.95-0.64-2.98-2.26
		c-0.02-1.05-0.07-2.1,0-3.15C107.23,16.73,108.29,16.17,110.16,16.09L110.16,16.09z"/>
	<path class="st3" d="M156.59,12.7c2.08-0.09,8.11-0.09,11.8-0.04v3.42c-2.36-0.03-8.78-0.05-10.14,0.01
		c-1.87,0.08-2.93,0.64-3.03,2.18c-0.07,1.05-0.02,2.1,0,3.15c0.03,1.62,1.1,2.2,2.98,2.26c1.42,0.04,7.53,0.07,10.19,0.03v3.31
		c-3.88,0.04-9.72,0-11.88-0.07c-3.26-0.1-5.12-1.54-5.17-4.35c-0.03-1.82-0.12-3.64,0-5.46C151.51,14.45,153.34,12.84,156.59,12.7
		L156.59,12.7z"/>
	<path class="st3" d="M124.81,8h2.78c0.34,0,0.62,0.28,0.62,0.62v2.68c0,0.34-0.28,0.62-0.62,0.62h-2.78
		c-0.34,0-0.62-0.28-0.62-0.62V8.62C124.18,8.28,124.46,8,124.81,8L124.81,8z"/>
	<path class="st3" d="M136.84,35.25h3.55c0.44,0,0.79,0.36,0.79,0.79v3.42c0,0.44-0.36,0.79-0.79,0.79h-3.55
		c-0.44,0-0.79-0.36-0.79-0.79v-3.42C136.05,35.61,136.4,35.25,136.84,35.25L136.84,35.25z"/>
	<path class="st3" d="M124.33,12.98c1.23,0,2.46,0,3.7,0c0,4.27-0.12,8.54,0,12.8c0.07,2.39-0.72,4.35-3.7,4.84
		c-1.19,0.2-2.41,0-3.61,0c0-1.07,0-2.14,0-3.2c0.76,0,1.54,0.08,2.3,0c0.82-0.09,1.24-0.67,1.23-1.72
		C124.21,21.47,124.3,17.22,124.33,12.98L124.33,12.98z"/>
	<path class="st3" d="M141.44,27.04v-3.08c-1.93,0-3.86,0-5.79,0c-0.74-0.23-1.15-0.66-1.23-1.27v-1.48h14.28c0-1.85,0-3.7,0-5.54
		c-0.61-1.91-2.09-2.83-4.23-3c-2.9,0-5.8,0-8.7,0c-2.8,0.19-4.66,1.38-5.17,3.98c0,1.97,0,3.94,0,5.91
		c0.19,2.21,1.32,3.75,3.82,4.31L141.44,27.04L141.44,27.04z M134.42,18.63h10.43V17c0-0.68-0.56-1.24-1.24-1.24h-7.33
		c-1.02,0-1.86,0.84-1.86,1.86V18.63L134.42,18.63z"/>
	<path class="st3" d="M192.36,58.56v-3.77c-2.36,0-4.73,0-7.09,0c-0.91-0.29-1.41-0.81-1.51-1.56v-1.81h17.51c0-2.26,0-4.53,0-6.79
		c-0.75-2.34-2.56-3.48-5.18-3.67c-3.56,0-7.11,0-10.67,0c-3.44,0.24-5.72,1.69-6.34,4.88c0,2.41,0,4.83,0,7.24
		c0.24,2.71,1.63,4.59,4.68,5.28L192.36,58.56L192.36,58.56z M183.76,48.25h12.78v-2c0-0.84-0.68-1.52-1.52-1.52h-8.97
		c-1.25,0-2.28,1.03-2.28,2.28V48.25L183.76,48.25z"/>
	<polygon class="st3" points="171.59,8.86 175.53,8.86 175.53,12.72 180.13,12.72 180.13,15.92 175.53,15.92 175.53,27 171.59,27 
		171.59,15.92 169.64,15.92 169.64,12.72 171.59,12.72 	"/>
	<polygon class="st3" points="136,41.82 141.17,41.82 141.17,58.4 136,58.4 	"/>
	<polygon class="st3" points="144.54,35.17 149.71,35.17 149.71,58.4 144.54,58.4 	"/>
	<path class="st3" d="M80.35,35.09v23.4c7.33,0,14.67,0,22,0c2.31-0.13,4.44-0.8,5.09-3.28c0.48-1.85,0.25-3.85,0-5.75
		c-0.27-2.07-1.41-2.77-2.69-3.04c1.24-0.11,2.12-0.73,2.26-2.38c0.15-1.85,0.36-3.74,0.08-5.58c-0.31-2.08-2.49-2.99-5.39-3.37
		L80.35,35.09L80.35,35.09z M85.4,39.4h15.13c1.02,0,1.86,0.84,1.86,1.86v1.78c0,1.02-0.84,1.86-1.86,1.86H85.4V39.4L85.4,39.4z
		 M85.4,48.47h15.5c1.05,0,1.91,0.86,1.91,1.91v1.82c0,1.05-0.86,1.91-1.91,1.91H85.4V48.47L85.4,48.47z"/>
	<path class="st3" d="M110.34,41.22h5.01c0,3.17,0.02,6.35,0,9.52c-0.01,1.76,0.77,3.04,2.63,3.2c2.05,0.17,4.11-0.14,6.16,0
		c2.54,0.17,3.68-0.64,3.7-2.95l0.08-9.77h4.84c0.03,4.02,0.32,8.05,0.08,12.07c-0.22,3.79-2.82,4.9-6.16,4.92
		c-3.75,0.02-7.21,0.24-11.24,0c-3.55-0.21-5.09-2.9-5.09-6.32V41.22L110.34,41.22z"/>
	<path class="st3" d="M28.57,9.21H55c2.73,0,4.97,2.23,4.97,4.97v28.07c0,2.73-2.23,4.97-4.97,4.97H28.57
		c-2.73,0-4.97-2.24-4.97-4.97V14.17C23.61,11.44,25.84,9.21,28.57,9.21L28.57,9.21z M28.95,12.68h25.68c1.04,0,1.9,0.86,1.9,1.9
		v27.28c0,1.04-0.86,1.9-1.9,1.9H28.95c-1.04,0-1.9-0.85-1.9-1.9V14.57C27.05,13.53,27.9,12.68,28.95,12.68L28.95,12.68z"/>
</g>
</svg>
